<svg xmlns="http://www.w3.org/2000/svg" xml:space="preserve" style="fill-rule:evenodd;clip-rule:evenodd;stroke-linecap:round;stroke-linejoin:round;stroke-miterlimit:1.5" viewBox="0 0 1841 1403"><g transform="matrix(.60712 0 0 .62953 377.026 -139.02)"><path d="M40.019 2277.06c-162.201-189.57-260.209-435.67-260.209-704.48 0-598.576 485.964-1084.541 1084.537-1084.541S1948.88 974.004 1948.88 1572.58c0 268.81-98 514.91-260.21 704.48z" style="fill:#02daff"/><clipPath id="a"><path d="M40.019 2277.06c-162.201-189.57-260.209-435.67-260.209-704.48 0-598.576 485.964-1084.541 1084.537-1084.541S1948.88 974.004 1948.88 1572.58c0 268.81-98 514.91-260.21 704.48z"/></clipPath><g clip-path="url(#a)"><circle cx="725.472" cy="2114.51" r="464.803" style="fill:#00bad9" transform="matrix(.63887 0 0 .67902 -416.775 637.736)"/><circle cx="725.472" cy="2114.51" r="464.803" style="fill:#00bad9" transform="matrix(.67989 0 0 .67989 -53.018 281.418)"/><circle cx="725.472" cy="2114.51" r="464.803" style="fill:#00bad9" transform="translate(1078.2 390.12)scale(.73847)"/><circle cx="725.472" cy="2114.51" r="464.803" style="fill:#00bad9" transform="matrix(.60004 0 0 .60004 721.011 486.589)"/><path d="M225.675 1632.43h2216.57v754.128H225.675z" style="fill:#67685c" transform="matrix(1.34426 0 0 1.29642 -850.57 -134.139)"/></g></g><path d="m643.628 616.877-229.072 2.903s14.937-32.666 36.879-33.486c21.943-.821 28.839 7.252 28.839 7.252s4.312-35.931 62.245-32.913 63.34 38.021 63.34 38.021 4.966-3.211 21.759 2.516c16.794 5.727 16.01 15.707 16.01 15.707" style="fill:none" transform="matrix(.62873 0 0 .62873 198.838 -269.53)"/><path d="m643.628 616.877-229.072 2.903s14.937-32.666 36.879-33.486c21.943-.821 28.839 7.252 28.839 7.252s4.312-35.931 62.245-32.913 63.34 38.021 63.34 38.021 4.966-3.211 21.759 2.516c16.794 5.727 16.01 15.707 16.01 15.707" style="fill:#fff" transform="matrix(-1.84872 0 0 1.84872 1406.493 -673.86)"/><path d="m1071.27 529.258-40.69-42.979a8.23 8.23 0 0 1-.87-10.227 8.22 8.22 0 0 1 9.77-3.123l44.18 16.831 17.26-47.98a8.228 8.228 0 0 1 15.81 1.164l11.74 58.407 41.78 14.426a8.232 8.232 0 0 1-.45 15.701l-28.11 7.941 14.52 50.965a8.215 8.215 0 0 1-3.78 9.372 8.23 8.23 0 0 1-10.01-1.352l-37.79-38.533-34.2 18.284a8.226 8.226 0 0 1-11.71-9.772zm17.16.391-7.83 24.403 21.71-11.606a8.22 8.22 0 0 1 9.75 1.495l19.45 19.826-7.92-27.77a8.25 8.25 0 0 1 .73-6.267 8.26 8.26 0 0 1 4.95-3.911l10.8-3.048-21.43-7.398a8.22 8.22 0 0 1-5.38-6.159l-6.85-34.065-10.09 28.073a8.234 8.234 0 0 1-10.68 4.907l-18.32-6.978 19.25 20.325a8.24 8.24 0 0 1 1.86 8.173" style="fill:#bf6a3b" transform="matrix(.62873 0 0 .62873 198.838 -269.53)"/><path d="M1076.64 603.44c-11.98-5.431-31.42-22.14-41.82-44.61-9.06-19.573-12.21-56.134-9.15-75.892 3.46-22.347 11.84-36.133 22.89-44.278 11.16-8.216 25.37-10.849 41.41-9.738 15.84 1.098 39.28 12.062 57.34 31.285 16.28 17.335 27.92 42.006 31.46 54.171 7.58 26.065 10.84 52.981-12.8 82.076-12.62 15.529-29.82 19.913-47.01 18.78-15.67-1.032-31.26-6.779-42.32-11.794m6.8-14.993c9.58 4.342 23.03 9.467 36.6 10.361 12.06.795 24.3-1.84 33.15-12.734 19.3-23.75 15.96-45.824 9.77-67.101-3.1-10.672-13.37-32.288-27.65-47.496-14.74-15.693-33.55-25.236-46.48-26.132-11.76-.816-22.32.542-30.5 6.569-8.28 6.1-13.8 16.806-16.4 33.545-2.67 17.295-.1 49.322 7.83 66.456 8.45 18.258 23.94 32.118 33.68 36.532" style="fill:#bf6a3b" transform="matrix(.62873 0 0 .62873 198.838 -269.53)"/><g transform="matrix(.62873 0 0 .62873 198.838 -269.53)"><path d="m1007.17 1891.06 3.8-1285.491s-5.45-31.769 18.87-42.731c24.31-10.962 59.79-4.185 74.54 7.375s48.63 42.775 63.64 64.896c15.01 22.12 21.72 39.699 22.12 69.522.39 29.824.82 63.486.82 63.486l23.58 1120.533z" style="fill:#f0e2cc"/><clipPath id="b"><path d="m1007.17 1891.06 3.8-1285.491s-5.45-31.769 18.87-42.731c24.31-10.962 59.79-4.185 74.54 7.375s48.63 42.775 63.64 64.896c15.01 22.12 21.72 39.699 22.12 69.522.39 29.824.82 63.486.82 63.486l23.58 1120.533z"/></clipPath><g clip-path="url(#b)"><path d="m1007.17 1891.06 3.8-1285.491s-5.45-31.769 18.87-42.731c24.31-10.962 59.79-4.185 74.54 7.375s48.63 42.775 63.64 64.896c15.01 22.12 21.72 39.699 22.12 69.522.39 29.824.82 63.486.82 63.486l23.58 1120.533z" style="fill:#e5cca5" transform="matrix(1 0 0 1.24273 109.102 -374.822)"/></g></g><path d="m621.503 2009.75 8.659 59.63 70.133 26.83 880.395 7.08 123.72-44.65-295.1-89.49z" style="fill:#cb9b4e" transform="matrix(.62873 0 0 .62873 198.838 -269.53)"/><path d="m1263.07 1881.96 157.55 33.28 1.04 20.51-156-10.82z" style="fill:#dbba85" transform="matrix(.62873 0 0 .62873 198.838 -269.53)"/><path d="m1309.47 1922.32 128.32 5.37 3.59 26.73-131.33-1.1z" style="fill:#dbba85" transform="matrix(.62873 0 0 .62873 198.838 -269.53)"/><path d="m1400.02 1946.48 311.1 70.58 2.95 45.12-313.26-62.96z" style="fill:#dbba85" transform="matrix(.62873 0 0 .62873 198.838 -269.53)"/><path d="m1071.52 1543.96 1.77 78.47s40.7-20.7 46.35-35.76-2.24-19.06-12.83-32c-10.58-12.94-35.29-10.71-35.29-10.71" style="fill:#bf6a3b" transform="matrix(.62873 0 0 .62873 198.838 -269.53)"/><path d="M1305.71 1587.18s-15.35 21.68-55.46 37.24c-40.12 15.55-45.35 7.48-45.35 7.48l24.59-103.85 14.91-19.26z" style="fill:#744024" transform="scale(.62873)rotate(-21.424 559.095 594.497)"/><path d="M941.915 1775.4s11.337 14.23 28.309 21.41c16.971 7.17 39.046 13.42 39.046 13.42l-2.08-97.51s-42.19-45.9-46.995-51.12c-4.804-5.21-18.28 113.8-18.28 113.8M1305.71 1587.18s-15.35 21.68-55.46 37.24c-40.12 15.55-45.35 7.48-45.35 7.48l24.59-103.85 57.64 21.62z" style="fill:#744024" transform="matrix(.62873 0 0 .62873 198.838 -269.53)"/><path d="m1282.75 1573.57-.99 102.56-48.38-35.59s1.67-5.19 16.87-16.12c15.19-10.94 21.5-25.4 21.5-34.3 0-8.89.18-27.8.18-27.8z" style="fill:#ff9962" transform="matrix(.62873 0 0 .62873 198.838 -269.53)"/><g transform="matrix(.62873 0 0 .62873 198.838 -269.53)"><path d="M1024.17 1507.77s-1.02 8.76 4.76 14.61c5.79 5.86 16.84 21.18 34.9 25.6 18.06 4.43 45.52 6.01 51.72 23.12 6.19 17.11 5.46 24.78 7.23-3.98s2.21-59.89 2.21-59.89-3.84-12.98-14.31-25.07c-10.47-12.1-34.07-22.87-41-31.27-6.94-8.41-45.51 56.88-45.51 56.88" style="fill:#ff9962"/><clipPath id="c"><path d="M1024.17 1507.77s-1.02 8.76 4.76 14.61c5.79 5.86 16.84 21.18 34.9 25.6 18.06 4.43 45.52 6.01 51.72 23.12 6.19 17.11 5.46 24.78 7.23-3.98s2.21-59.89 2.21-59.89-3.84-12.98-14.31-25.07c-10.47-12.1-34.07-22.87-41-31.27-6.94-8.41-45.51 56.88-45.51 56.88"/></clipPath><g clip-path="url(#c)"><path d="M977.987 1397.06h105.565v204.657H977.987z" style="fill:#bf6a3b" transform="matrix(.9016 0 0 1 96.225 0)"/><path d="M977.987 1397.06h105.565v204.657H977.987z" style="fill:#bf6a3b" transform="matrix(.9016 0 0 1 224.132 35.191)"/></g></g><path d="M1299.78 1691.02s10.75-9.53 28.43-20.6c17.67-11.06 29.81-9.37 29.81-9.37l56.39 7.62 2.16 41.81s-34.81 20.03-61.65 32.09c-22.27 10-36.47 13.64-40.24 11.76-8.3-4.15-16.13-39.03-16.13-39.03z" style="fill:#744024" transform="matrix(.62873 0 0 .62873 198.838 -269.53)"/><g transform="matrix(.62873 0 0 .62873 198.838 -269.53)"><path d="m1073.29 1622.43-.02 75.77s-88.05 43.63-98.531 46.82c-10.48 3.19-19.366 23.01-16.86-4.33s3.418-59.7 3.418-59.7 37.138-32.81 54.453-36.91c17.32-4.1 57.54-21.65 57.54-21.65" style="fill:#ff9962"/><clipPath id="d"><path d="m1073.29 1622.43-.02 75.77s-88.05 43.63-98.531 46.82c-10.48 3.19-19.366 23.01-16.86-4.33s3.418-59.7 3.418-59.7 37.138-32.81 54.453-36.91c17.32-4.1 57.54-21.65 57.54-21.65"/></clipPath><g clip-path="url(#d)"><path d="M1093.02 1642.48h61.253v258.239h-61.253z" style="fill:#bf6a3b" transform="translate(-43.809 -131.492)"/><path d="M1093.02 1642.48h61.253v258.239h-61.253z" style="fill:#bf6a3b" transform="translate(-167.226 -70.036)"/></g></g><path d="m1073.27 1686.82-2.07 88.28s32.9-29.15 36.86-51.43c1.52-8.56 7.18-18.73 4.28-25.21-4.63-10.38-20.19-15.5-26.98-21.01-11.03-8.95-12.49-14.99-12.49-14.99z" style="fill:#bf6a3b" transform="matrix(.62873 0 0 .62873 198.838 -269.53)"/><g transform="matrix(.62873 0 0 .62873 198.838 -269.53)"><path d="M1225.02 1535.77c11.35 16.15 29.41 25.98 45.78 31.87s33.39 22.7 33.39 22.7l-1.31-86s-4.14-15.94-13.09-29.03c-8.95-13.1-19.65-12.23-19.65-12.23s-40.82 33.84-42.56 41.48c-1.75 7.64-13.91 15.06-2.56 31.21" style="fill:#ff9962"/><clipPath id="e"><path d="M1225.02 1535.77c11.35 16.15 29.41 25.98 45.78 31.87s33.39 22.7 33.39 22.7l-1.31-86s-4.14-15.94-13.09-29.03c-8.95-13.1-19.65-12.23-19.65-12.23s-40.82 33.84-42.56 41.48c-1.75 7.64-13.91 15.06-2.56 31.21"/></clipPath><g clip-path="url(#e)"><path d="M977.987 1397.06h105.565v204.657H977.987z" style="fill:#bf6a3b" transform="matrix(.9016 0 0 1 387.875 65.8)"/></g></g><g transform="matrix(.62873 0 0 .62873 198.838 -269.53)"><path d="m1115.48 1692.28 3.04 83.49s34.55-5.25 64.13-34 44.51-28.48 44.51-28.48l1.94-88.46-28.2-14.93s-17.14 26.54-36.22 40.64c-19.07 14.1-49.2 41.74-49.2 41.74" style="fill:#ff9962"/><clipPath id="f"><path d="m1115.48 1692.28 3.04 83.49s34.55-5.25 64.13-34 44.51-28.48 44.51-28.48l1.94-88.46-28.2-14.93s-17.14 26.54-36.22 40.64c-19.07 14.1-49.2 41.74-49.2 41.74"/></clipPath><g clip-path="url(#f)"><path d="M1093.02 1642.48h61.253v258.239h-61.253z" style="fill:#bf6a3b" transform="translate(-17.776 -56.982)"/><path d="M1093.02 1642.48h61.253v258.239h-61.253z" style="fill:#bf6a3b" transform="translate(107.815 -103.797)"/></g></g><g transform="matrix(.62873 0 0 .62873 198.838 -269.53)"><path d="m1263.22 1801.58 1.15 86.11s39.84.55 56.16-15.5c16.32-16.04 17.43-10.51 17.98-34.86.56-24.34-1.66-88.53-1.66-88.53s2.22 5.53-17.98 18.81-55.65 33.97-55.65 33.97" style="fill:#ff9962"/><clipPath id="g"><path d="m1263.22 1801.58 1.15 86.11s39.84.55 56.16-15.5c16.32-16.04 17.43-10.51 17.98-34.86.56-24.34-1.66-88.53-1.66-88.53s2.22 5.53-17.98 18.81-55.65 33.97-55.65 33.97"/></clipPath><g clip-path="url(#g)"><path d="M977.987 1397.06h105.565v204.657H977.987z" style="fill:#bf6a3b" transform="matrix(.9016 0 0 1 435.741 300.839)"/><path d="M977.987 1397.06h105.565v204.657H977.987z" style="fill:#bf6a3b" transform="matrix(.9016 0 0 1 306.445 340.379)"/></g></g><g transform="matrix(.62873 0 0 .62873 198.838 -269.53)"><path d="m1219.44 1522.26-2.97-87.55s-2.23-15.13 14.14-27.53 30.26-16.12 30.26-27.28.24-28.28.24-28.28 14.89 13.4 16.87 40.18c1.98 26.79 0 78.13 0 78.13s3.22 3.97-18.11 20.34-40.43 31.99-40.43 31.99" style="fill:#ff9962"/><clipPath id="h"><path d="m1219.44 1522.26-2.97-87.55s-2.23-15.13 14.14-27.53 30.26-16.12 30.26-27.28.24-28.28.24-28.28 14.89 13.4 16.87 40.18c1.98 26.79 0 78.13 0 78.13s3.22 3.97-18.11 20.34-40.43 31.99-40.43 31.99"/></clipPath><g clip-path="url(#h)"><path d="M977.987 1397.06h105.565v204.657H977.987z" style="fill:#bf6a3b" transform="matrix(.2599 0 0 1 985.52 -64.04)"/></g></g><g transform="matrix(.62873 0 0 .62873 198.838 -269.53)"><path d="m1171.94 1497.45-.6 100.86s4.2 10.21 28.52 18.62c24.31 8.4 41.72 20.41 41.72 20.41l3.91-84.35s-11.71-17.11-28.82-27.62-44.73-27.92-44.73-27.92" style="fill:#ff9962"/><clipPath id="i"><path d="m1171.94 1497.45-.6 100.86s4.2 10.21 28.52 18.62c24.31 8.4 41.72 20.41 41.72 20.41l3.91-84.35s-11.71-17.11-28.82-27.62-44.73-27.92-44.73-27.92"/></clipPath><g clip-path="url(#i)"><path d="M977.987 1397.06h105.565v204.657H977.987z" style="fill:#bf6a3b" transform="matrix(.9016 0 0 1 213.224 63.073)"/><path d="M977.987 1397.06h105.565v204.657H977.987z" style="fill:#bf6a3b" transform="matrix(.9016 0 0 1 342.498 108.493)"/></g></g><path d="m910.652 1481.38-2.369 42.7 48.412 33.24s-1.711-64.77-1.955-83.34c-.245-18.58-13.343-82.95-13.343-82.95zM1297.01 1714.77s42.06 24.62 39.84 34.03c-2.21 9.41-28.22 26.56-48.97 37.35s-33.2 13.56-14.38-9.41c18.81-22.96 23.51-61.97 23.51-61.97" style="fill:#744024" transform="matrix(.62873 0 0 .62873 198.838 -269.53)"/><g transform="matrix(.62873 0 0 .62873 198.838 -269.53)"><path d="m1210.88 1719.45 8.89 103.43s41.31-16.65 59.01-32.25c17.7-15.59 23.81-29.29 23.81-29.29l-1.19-89.11s-17.41 3.71-34.81 16.24c-17.41 12.54-55.71 30.98-55.71 30.98" style="fill:#ff9962"/><clipPath id="j"><path d="m1210.88 1719.45 8.89 103.43s41.31-16.65 59.01-32.25c17.7-15.59 23.81-29.29 23.81-29.29l-1.19-89.11s-17.41 3.71-34.81 16.24c-17.41 12.54-55.71 30.98-55.71 30.98"/></clipPath><g clip-path="url(#j)"><path d="M977.987 1397.06h105.565v204.657H977.987z" style="fill:#bf6a3b" transform="matrix(.9016 0 0 1 384.679 230.723)"/><path d="M977.987 1397.06h105.565v204.657H977.987z" style="fill:#bf6a3b" transform="matrix(.9016 0 0 1 264.829 273.268)"/></g></g><path d="m909.792 1495.69-.397-82.45s-3.179-7.55 15.1-21.26 35.564-25.83 38.743-33.58 6.154-15.66 7.852 1.58-.784 73.92-.784 73.92-2.743 9.54-18.285 24.56-42.229 37.23-42.229 37.23" style="fill:#ff9962" transform="matrix(.62873 0 0 .62873 198.838 -269.53)"/><path d="M842.01 1846.35s-3.671 12.47 9.753 20.12c13.425 7.64 39.26 23.96 39.26 23.96l71.127-2.34s8.869-36.84 2.696-53.17c-6.174-16.34-42.984-25.52-48.39-36.1-5.407-10.58-44.45 9.75-44.45 9.75z" style="fill:#744024" transform="matrix(.62873 0 0 .62873 198.838 -269.53)"/><g transform="matrix(.62873 0 0 .62873 198.838 -269.53)"><path d="m907.813 1517.97 1.466 68.92s14.42 19.8 30.307 34.22 31.04 31.04 31.04 31.04l2.689-77.97s5.621-8.06-13.687-22.97c-19.309-14.91-51.815-33.24-51.815-33.24" style="fill:#ff9962"/><clipPath id="k"><path d="m907.813 1517.97 1.466 68.92s14.42 19.8 30.307 34.22 31.04 31.04 31.04 31.04l2.689-77.97s5.621-8.06-13.687-22.97c-19.309-14.91-51.815-33.24-51.815-33.24"/></clipPath><g clip-path="url(#k)"><path d="M1093.02 1642.48h61.253v258.239h-61.253z" style="fill:#bf6a3b" transform="translate(-145.469 -168.804)"/></g></g><path d="M903.936 1582.95c-13.239-9.82-19.831 128.46-3.778 118.52 14.64-9.07 30.5-19.21 37.632-24.86 14.952-11.85 43.807-9.97 23.212-31.97-20.594-22.01-12.28-14.24-36.336-37.71-14.879-14.52 2.163-7.02-20.73-23.98" style="fill:#ff9962" transform="matrix(.62873 0 0 .62873 198.838 -269.53)"/><g transform="matrix(.62873 0 0 .62873 198.838 -269.53)"><path d="M887.009 1525.68s-13.259 9.87-14.952 47.68c-1.692 37.8-2.539 146.69-2.539 146.69s29.526-17.49 50.795-31.33c7.314-4.75 5.002-32.6 5.142-66.24.101-24.13 1.374-22.57-21.519-39.53-13.239-9.82-23.697-14.67-21.44-27.37 2.257-12.69 4.513-29.9 4.513-29.9" style="fill:#ff9962"/><clipPath id="l"><path d="M887.009 1525.68s-13.259 9.87-14.952 47.68c-1.692 37.8-2.539 146.69-2.539 146.69s29.526-17.49 50.795-31.33c7.314-4.75 5.002-32.6 5.142-66.24.101-24.13 1.374-22.57-21.519-39.53-13.239-9.82-23.697-14.67-21.44-27.37 2.257-12.69 4.513-29.9 4.513-29.9"/></clipPath><g clip-path="url(#l)"><path d="M1093.02 1642.48h61.253v258.239h-61.253z" style="fill:#bf6a3b" transform="translate(-190.789 -157.359)"/></g></g><g transform="matrix(.62873 0 0 .62873 198.838 -269.53)"><path d="M948.902 1671.34s-66.693 39.42-79.384 48.71c-12.69 9.3-26.721 11.13-28.866 21.63-2.144 10.49.052 100.44.052 100.44s-7.249 19.85 20.227-3.16c27.475-23 80.671-59.22 80.671-59.22s18.76-15.49 19.98-22.58c1.22-7.08 2.304-93.18 2.304-93.18z" style="fill:#ff9962"/><clipPath id="m"><path d="M948.902 1671.34s-66.693 39.42-79.384 48.71c-12.69 9.3-26.721 11.13-28.866 21.63-2.144 10.49.052 100.44.052 100.44s-7.249 19.85 20.227-3.16c27.475-23 80.671-59.22 80.671-59.22s18.76-15.49 19.98-22.58c1.22-7.08 2.304-93.18 2.304-93.18z"/></clipPath><g clip-path="url(#m)"><path d="M1093.02 1642.48h61.253v258.239h-61.253z" style="fill:#bf6a3b" transform="translate(-159.706 -76.052)"/><path d="M1093.02 1642.48h61.253v258.239h-61.253z" style="fill:#bf6a3b" transform="translate(-296.41 6.568)"/></g></g><g transform="matrix(.62873 0 0 .62873 198.838 -269.53)"><path d="m1024.27 1512.61-2.04-100.46s-3.22-16.06 17.81-27.75c21.03-11.68 43.14-16.29 45.56-31.94s1.66-20.87 1.66-20.87 4.51-10.2 5.07 2.2c.56 12.39-.56 102.69-.56 102.69s3.08 3.95-15.65 20.42-36.32 28.11-41.23 35.67c-4.92 7.55-6.62 8.53-7.59 14-.98 5.47-.02 13.81-.02 13.81z" style="fill:#ff9962"/><clipPath id="n"><path d="m1024.27 1512.61-2.04-100.46s-3.22-16.06 17.81-27.75c21.03-11.68 43.14-16.29 45.56-31.94s1.66-20.87 1.66-20.87 4.51-10.2 5.07 2.2c.56 12.39-.56 102.69-.56 102.69s3.08 3.95-15.65 20.42-36.32 28.11-41.23 35.67c-4.92 7.55-6.62 8.53-7.59 14-.98 5.47-.02 13.81-.02 13.81z"/></clipPath><g clip-path="url(#n)"><path d="M977.987 1397.06h105.565v204.657H977.987z" style="fill:#bf6a3b" transform="matrix(.9016 0 0 1 180.992 -101.356)"/><path d="M977.987 1397.06h105.565v204.657H977.987z" style="fill:#bf6a3b" transform="matrix(.9016 0 0 1 57.932 -31.206)"/></g></g><path d="m867.297 1833.76 1.721 29.43s-.366.69 8.018-6.54c8.384-7.22 12.287-7.93 13.666-20.29 1.38-12.35.835-99.41.835-99.41s-10.242.77-17.538 8.47-9.061 12.93-8.648 26.86c.412 13.93 1.946 61.48 1.946 61.48" style="fill:#ff9962" transform="matrix(.62873 0 0 .62873 198.838 -269.53)"/><path d="M1402.42 1775.03s-1.14-9.23-10.33-12.55c-9.2-3.32-26.69 21.83-28.98 35.49-2.3 13.66-5.37 15.58 11.36 32.43 16.72 16.85 29.75 22.22 29.75 22.22z" style="fill:#744024" transform="matrix(.62873 0 0 .62873 198.838 -269.53)"/><path d="m901.885 1807.43 1.587 54.45s-1.745 8.6 12.521-6.28c14.267-14.87 23.824-25.89 23.824-25.89s1.786 2.34 2.294-17.22-.054-34.46-.054-34.46z" style="fill:#ff9962" transform="matrix(.62873 0 0 .62873 198.838 -269.53)"/><path d="m1203.23 1725.68 4.52 107.2 21.79 2.47-7.27-103.76z" style="fill:#ff9962" transform="matrix(.30043 -.0116 -.02824 .62765 764.503 -205.52)"/><path d="m1369.79 1646.56 1.21-99.49s12.86-4.85 10.92 11.65-4.36 13.59 6.55 28.39c10.92 14.8 28.88 22.08 28.88 22.08l-.97 103.37s4.61-15.77-8.01-31.54-38.58-34.46-38.58-34.46" style="fill:#ff9962" transform="matrix(.62873 0 0 .62873 198.838 -269.53)"/><path d="M1358.14 1663.34s7.76-14.17 11.65-16.78 32.11 19.27 34.97 39.41.55 83.84.55 83.84c-5.59 1.42-15.71 1.96-26.59 12.09-12.91 12.02-18 32.83-17.6 22.92.75-18.28-1.98-58.31-1.98-58.31z" style="fill:#ff9962" transform="matrix(.62873 0 0 .62873 198.838 -269.53)"/><path d="M1412 1780.21s-19.4-15.21-20.8 3.49c-1.39 18.7 2.43 104.82 2.43 104.82s1.34-6.28 12.78-10.87c11.44-4.6 17.04-6.51 17.04-6.51l1.01-76.36z" style="fill:#ff9962" transform="matrix(.62873 0 0 .62873 198.838 -269.53)"/><g transform="matrix(.62873 0 0 .62873 198.838 -269.53)"><path d="m1042.55 1818.3 3.37 102.68s50.18-43.23 60.09-79.7 9.91-49.12 10.12-89.39-1.72-51.88-1.72-51.88-2.65-4.62-2.11.39c.45 4.28-2.35 15.38-5.01 23.5-4.18 12.77-17.34 30.14-25.45 38.25-8.11 8.1-11.37 13.62-11.37 13.62s-.79 21.51-12.05 30.41c-11.26 8.89-15.87 12.12-15.87 12.12" style="fill:#ff9962"/><clipPath id="o"><path d="m1042.55 1818.3 3.37 102.68s50.18-43.23 60.09-79.7 9.91-49.12 10.12-89.39-1.72-51.88-1.72-51.88-2.65-4.62-2.11.39c.45 4.28-2.35 15.38-5.01 23.5-4.18 12.77-17.34 30.14-25.45 38.25-8.11 8.1-11.37 13.62-11.37 13.62s-.79 21.51-12.05 30.41c-11.26 8.89-15.87 12.12-15.87 12.12"/></clipPath><g clip-path="url(#o)"><path d="M1093.02 1642.48h61.253v258.239h-61.253z" style="fill:#bf6a3b" transform="translate(3.99 10.64)"/><path d="M1093.02 1642.48h61.253v258.239h-61.253z" style="fill:#bf6a3b" transform="matrix(.28554 0 0 1 745.604 32.652)"/></g></g><path d="m1203.23 1725.68 4.62 104.3 19.98-8.66-6.23-107.07z" style="fill:#ff9962" transform="matrix(.28695 .00498 -.0109 .62864 628.393 -239.39)"/><path d="m1203.23 1725.68 4.62 104.3 19.98-8.66-6.23-107.07z" style="fill:#ff9962" transform="matrix(.69756 .04104 -.03693 .62765 179.747 -317.54)"/><path d="m1263.59 1880.47-404.04 12.05-2.446 37.59 406.906-7.92z" style="fill:#f0e2cc" transform="matrix(.62873 0 0 .62873 198.838 -269.53)"/><path d="m1311.01 1921.78-539.847 8.11-3.355 33.47 543.492-10.76z" style="fill:#f0e2cc" transform="matrix(.62873 0 0 .62873 198.838 -269.53)"/><path d="M1400.02 1946.48 621.872 1965l-.369 44.75 778.447-10.95z" style="fill:#f0e2cc" transform="matrix(.62873 0 0 .62873 198.838 -269.53)"/><g transform="matrix(.62873 0 0 .62873 198.838 -269.53)"><path d="m1334.66 2024.86 262.75 52.89 39.39 245.91-305.01-26.86z" style="fill:#744024"/><clipPath id="p"><path d="m1334.66 2024.86 262.75 52.89 39.39 245.91-305.01-26.86z"/></clipPath><g clip-path="url(#p)"><path d="M1484.61 1754.48c-1.91-6.53-7.76-7.13-.32-32.26 3.78-12.75 7.46-14.75 1.9-16.77-8.08-2.94-1.84-60.59-1.58-61.05.74-1.26 3.13-.83 3.86-2.09-6.58-1.89-9.29-2.57-5.76-8.34 1.71-2.8 1.64-2.69 4.43-4.43 12.71-7.94 32.44 14.06 41.44 5.06 8.32-8.32-8.28-20.8 2.21-20.24 19.48 1.02 19.99 6.92 15.82 25.93 21.99-12.43 19.98 2.57 18.98 9.18-1.39 9.15 2.54 8.19 11.64 8.27-4.14-10.19-4.82-11.21-1.84-12.7 12.58-6.29 14.37.05 13.92 13.91-.07 2.29 10.29 1.07 10.76-.63.22-.83-.11-.75.63-10.75-15.02-15.02 5.49-18.04 10.12-9.81 6.17 10.97-3.27 17.03 1.27 19.3 14.71 7.35 6.32-16.16 18.34-17.08 19.7-1.52-2.46 25.52 5.38 25.93 13.03.69 18.65-10.8 19.61-7.27 6.84 25.09-10.51 28.05 1.58 43.97 11.14 14.65 4.54 60.09 6.64 69.59.8 3.56-46.82 93.51-86.78 86.19-42.42-7.77-77.75-112.73-92.25-103.91" style="fill:#6b3b21;stroke:#000;stroke-width:6.31px" transform="translate(-563.243 -24.732)scale(1.29806)"/></g></g><path d="M1375.95 2064.63c-14.21 11.59-10.66 37.08-3.18 41.45 19.7 11.52 21.11-.13 24.42-22.72 4.1-27.97-16.19-22.84-21.24-18.73" style="fill:#bf6a3b" transform="matrix(.62873 0 0 .62873 198.838 -269.53)"/><path d="M1388.24 2198.46c13.46-49.91 11.18-60.1 3.95-79.5-3.26-8.74-4.24-7.92-12.12-12.78-7.75 27.87-7.74 32.01-7.74 77.01 0 17.5 5.41 16.09 15.91 15.27" style="fill:#bf6a3b" transform="matrix(.62873 0 0 .62873 198.838 -269.53)"/><path d="M1385.79 2291.66c15.81 8.33 1.5-25.59 7.08-46.74 6.83-25.87-5.54-49.99-8.96-47.45-13.76 10.2-7.65 13.63-11.97 74.09-1.08 15.13 2.83 14.3 13.85 20.1M1369.09 2167.34c-.15 21.2 29.35 20.63 21.78 1.22-13.09-33.59-1.88-53.13-5.81-53.67-19.69-2.68-15.82 32.4-15.97 52.45" style="fill:#bf6a3b" transform="matrix(.62873 0 0 .62873 198.838 -269.53)"/><path d="M1421.39 2083.45c1.59 3.19 3.44 6.26 4.76 9.57 8.54 21.35-4.33 28.96-22.57 15.24-7.35-5.53 9.27-41.96 17.81-24.81M1591.97 2213.42c-.04-3.41-.17-17.93 14.55-40.04 4.49-6.75 6.04-5.7 8.78-13.37 2.51-7.03-2.23-8.24-.19-17.75 2.46-11.48 29.17-12.77 18.32 15.04-2.88 7.38-.34 7.34 3.47 14.27 1.63 2.97 20.33 22.69 19.28 44.74-.06 1.29-5.64 3.85-8.67-13.49-2.55-14.56-6.62-12.81-6.95-11.77-1.03 3.3-7.66 40.33-2.31 56.89 7.12 22.06 5.86 22.23 9.64 44.94.09.53 3.03 10.04.39 7.71-10.14-8.96-8-20.3-18.71-39.34-2.57-4.57-3.62-9.1-5.59-4.24-5.53 13.61-4.31 24.92-17.74 39.14-1.35 1.43-7.65.85-2.9-24.3 5.6-29.64 2.64-30 8.68-59.59.32-1.57-.44-1.56 1.74-20.05.36-3.07-3.12-1.49-6.17 3.47-6.3 10.23-6.89 9.64-15.62 17.74" style="fill:#94522e" transform="matrix(.62873 0 0 .62873 198.838 -269.53)"/><path d="M1409.38 2173.93c2.58 16.5-1.57 24.72 15.13 22.7 4.12-.49-3.62-79.89-5.45-82.51-18.56-26.42-18.56 30.5-18.56 33.57 0 23.61-5.51 23-4.63 46.7.12 3.33 1.59 2.19 9.23 3.89z" style="fill:#94522e" transform="matrix(.62873 0 0 .62873 198.838 -269.53)"/><path d="M1405.21 2195.22c-4.93 82.59-12.97 101.53 9.41 100.87 5.44-.16.66-5.1 4.27-35.48.29-2.39-.49-2.24 1.5-30.15 0 40.61-2.69 60.47 8.76 64.56 14.77 5.28 6.2-12.33 6.2-49.79 0-22.13-3.71-21.47-6.84-43.38-1.07-7.47-10.46-7.01-14.11-7.7M1439.84 2106.11c.05 1.74.44 16.57 13.24 17.3 9.86.56 19.27-38.79 8.77-43.17-7.18-2.98-22.56 4.78-22.01 25.87" style="fill:#94522e" transform="matrix(.62873 0 0 .62873 198.838 -269.53)"/><path d="M1452.44 2115.51c-11.34 9.65-19.44 14.16-19.44 53.42 0 16.1 3.09 15.67 3.84 31.85.91 19.43 16.01 29.81 19.45 20.73 6.89-18.17-4.78-57.22-7.05-71.38 3.25 19.51 5.01 18.91 10.47 38.04 5.9 20.63 13.32-2.06 10.47-14.75-4.7-20.94-13.49-42.18-14.96-45.73M1483.25 2157.12c-10.46 8.71-7.03 45.39 6.85 32.92 6.51-5.85 8.27-29.14 7.78-31.69-.69-3.53-14.04-1.72-14.63-1.23" style="fill:#94522e" transform="matrix(.62873 0 0 .62873 198.838 -269.53)"/><path d="M1468.9 2307.42c14.96 1.49 6.94-18.41 2.78-33.13-4.13-14.59-9.87-43.61-20.47-56.83-15.63-19.49-3.53 7.57-1.97 32.47 1.3 20.73.01 33.63 9.83 45.09 2 2.33 6.13 12.03 9.83 12.4M1495.39 2211.43c12.71 19.73 15.29 33.71 21.23 26.63 9.49-11.3-7.46-28.7-9.67-34.35-7.56-19.38-28.8-20.56-29.33 3.16-1.06 47.81 1.99 49.48 10.57 52.34 1.27.43 9.03 3.01 11.28-12.48 2.62-18.06 2.22-18.29-4.08-35.3" style="fill:#94522e" transform="matrix(.62873 0 0 .62873 198.838 -269.53)"/><path d="M1488.43 2248.65c-1.08 3.5-13.4 43.75-4.08 45.62 7.39 1.47 8.98-34.32 12.48-31.69 5.93 4.44 9.24 38.64 9.84 40.57 3.32 10.61 24.26-.5 13.21-23.29-10.9-22.47-3.29-29.13-25.69-40.33M1603.01 2145.69c1.38 4.97-1.07 8.13 11.87 21.07 7.31 7.3 9.49 8.26 10.37 14.54 3.76 26.9-2.37 63.13-7.19 42.47-3.87-16.56 3.71-18.07-6.86-42.47-3.56 1.05-3.68 1.46-3.84 5.19-.92 21.04 12.38 43.46 11.53 104.5-.01.86-.11 7.98-5.85 9.03-8.78 1.6-3.43-21.97-10.37-44.65-3.89-12.71-4.29-22.6-7.18-14.21-5.28 15.3 7.26 64.5-14.72 61.03-3.28-.52.04-53.69.34-58.35 1.06-17.08-1.82-17.47 5.51-43.14 1.23-4.31 1.29-9.36 3.85-21.57-17.05 12.66-10.13 20.15-24.58 27.09-.21-15.18-.61-19.78 11.37-36.29 6.44-8.88 16.72-18.12 25.75-24.24" style="fill:#94522e" transform="matrix(.62873 0 0 .62873 198.838 -269.53)"/><path d="M1543.17 2218.88c11.01 7.66 11.3 7.05 14.16 10.8 15.64 20.52 6.56-8.5 5.36-10.44-6.35-10.25-30.08-27.2-30.09-27.25-.13-1.11 10.3-26.09-8.16-25.45-1.34.05-10.22.35-12.48 11.28-2.36 11.4-1.82 12.92 8.47 18.28-21.6 2.2-9.16 25.36-4.63 25.66.72.05 1.45.11 2.16 0 .5-.08.24-.39 3.32-5.46 3.8 29.57-3.41 29.36-2.12 59 .07 1.54 3.9 4.95 6.96 0 1.13-1.82 1.76-2.84 5.52-26.17 11.42 45.66 9.21 60.39 17.53 57.62 3.18-1.06 11.28-33.24 1.2-61.46-4.63-12.97-3.07-13.2-7.2-26.41" style="fill:#94522e" transform="matrix(.62873 0 0 .62873 198.838 -269.53)"/><path d="M1565.43 2149.86c5.31-2.46 5.71-1.85 6.77-4.06 3.21-6.72 14.49-19.71-4.41-24-17.33-3.93-18.72 13.05-18.88 14.97-.87 10.55 2.95 11.53 3.44 12.41-11.3-1.77-12.06.31-16.24 11.05-7.49 19.28-3.18 20.2-1.57 20.07 4.98-.38 8.85-14.58 9.24-16.01 7.26 56.62.63 89.78-.9 97.43-.61 3.05-.23 2.9-.23 15.78 0 4.42-10.22 25.66-.22 22.33 9.14-3.05 3.94-15.59 17.14-52.55 1.59 28.03 1.31 61.14 12.4 62.25 1.4.14 12.77-23.64 5.64-54.35-1.25-5.38-3.41-14.69-5.41-68.79 4.15 44.99-.85 57.96 6.99 58.64 6.49.56 5.19-3.38 5.19-58.41 0-16.08-.36-32.12-18.95-36.76M1594.99 2116.87c-6.93 7.39-12.18 28.15-.93 31.19 1.88.51 14.78 4 19.82-14.24 4.45-16.15-17.08-18.88-18.89-16.95" style="fill:#94522e" transform="matrix(.62873 0 0 .62873 198.838 -269.53)"/><path d="M715.895 2044.72s-40.412 88.04-59.79 148.78c-19.377 60.75-24.351 102.91-24.351 102.91l704.616 6.56 2.25-274.34z" style="fill:#ad5c41" transform="matrix(.62873 0 0 .62873 198.838 -269.53)"/><path d="M1027.09 2285.39c0-9.08-57.361-50.57-73.102-90.97-21.967-56.37-3.511-115.5 5.536-124.55 4.544-4.54-7.491-28.75 8.56-30.67 19.068-2.29 1.496 21.62 15.337 28.18 22.269 10.55 7.891 30.47-.714 54.57.54-20.53 4.76-19.34 13.197-38.17 6.926-15.44 14.906-11.45 16.766-28.17 2.42-21.84 31.65-13.37 19.62 10.7-7.66 15.31-5.28 16.36-3.93 16.4 32.89 1.14 46.36-17.18 44.58 3.21-.15 1.79-.6 2.08-20.68 8.56-12.07 3.9-26.2-5.3-31.75 13.56-2.24 7.63 2.73 21.13 2.86 21.75 2.43 12.14 5.23 143.15 3.72 155.6M1113.49 2170.11c-.34-49.76 34.13-70.81 31.25-81.36-.81-2.98-11.4-11.21 11.52-29.76 1.45-1.17 19.81-16.04 18.56 14.08-.58 13.9-26.77 21.5-5.12 27.2 1.66.43.58 2.3 19.84 8.32 21.26 6.64 16.74 18.08 13.76 18.24-9.53.5-37.42-21.66-37.76-.64-.7 42.41.73 42.45 7.04 57.91 3.25 7.98 3.39 61.05.64 62.08-24.17 9.07-12.59-71.48-22.08-34.88-.86 3.32-13.92 53.67-24 35.52-4.85-8.73 2.02-23.72 2.88-25.6 10.56-23.04 10.56-71.48 10.56-77.75-2.18 1.39-3.77-.78-10.88 8.64-5.51 7.29-4.2 8.32-16.21 18" style="fill:#ff9962" transform="matrix(.62873 0 0 .62873 198.838 -269.53)"/><path d="M1194.56 2238.21c-2.22-64.5 24.79-140.52 11.61-122.93-11.26 15.04-14.88 10.38-14.83 8.99.12-3.51.4-11.34 23.63-36.99-.97-1.3-8-.92-9.39-12.63-2.27-19.04 25.34-20.83 27.2 5.18.55 7.65-1.19 8.69 8.42 17.82 11.41 10.83 17.33 38.89 15.87 47.28-.46 2.64.74-4.24-22.35-24.94-.95 42.96 29.24 120.77 6.48 100.4-6.75-6.04-10.03-15.4-14.57-22.67-3.52-5.63-6.65-3.53-6.8-3.56-7.64 24.98-5.11 27.14-25.27 44.05" style="fill:#ff9962" transform="matrix(.62873 0 0 .62873 198.838 -269.53)"/><path d="M1283.2 2076.89c-10.76-36.59-21.27-7.2-21.73-5.47-3.4 12.7 7.73 20.2 3.98 25.38-4.15 5.75-1.35 6.97-6.47 16.1-7.16 12.75-4.03 14.37-11.61 23.22-1.42 1.65-3.88 13.57-.67 13.77 9.01.57 10.61-23.68 13.77-10.28 1.92 8.09 5.06 40.53 0 58.07-.41 1.45-5.08 17.64-.49 18.91 7.71 2.14 2.41-5.56 18.58-29.2.61-.9 1.08-1.89 1.66-2.82 8.95-14.42 4.11 38.36 17.75 52.76 2.13 2.25 7.32 2.82 8.79-1.99 5.71-18.69-19.49-87.59-17.09-106.85.61-4.85 15.67 8.56 16.93 2.66 1.6-7.55-8.22-7.51-13.79-17.48-5.02-8.97-5.53-27.85-9.61-36.78M1108.2 2091.89c-2.71-15.53-6.89-18.75 6.56-26.97 19.77-12.08 7.38 31.59 8.75 43.73.38 3.4 2.25 6.48 2.91 9.84l1.51 22.99c-8.41-.76-4.73 4.16-6.24 28.39-2.25 35.94 5.41 67.33 1.09 60.49-10.8-17.1-10.78-16.98-16.4-36.44-6.19 43.3-13.34-28.85-8.02-73.61" style="fill:#ff9962" transform="matrix(.62873 0 0 .62873 198.838 -269.53)"/><path d="M1234.84 2097.03c.28-1.38 3.46-17.32 3.46-17.32-.35-1.84-16.54-17.77 4.33-32.12 14.39-9.9 7.05 29.15 8.64 29.95 2.44 1.22 13.39 6.7 23.16 25.02.44.81-.36 3.73-11.42-.93-.93 75.11 12.93 77.65.31 93.88-.59.76-1.97 1.39-7.72-9.26-.67-1.24-.35-1.26-4.64-16.99-5.67 25.21-12.06 22.09-12.97 20.38-4.51-8.46.72-9.11 2.06-97.02z" style="fill:#ad5c41" transform="matrix(.62873 0 0 .62873 198.838 -269.53)"/><path d="M1428.91 2302.16c-3.15-2.31-2.31-9.38-20.46-15.02-14.4-4.47-17.71.04-45.13-29.79-11.7-12.73-31.33-8.39-34.06-7.79-29.6 6.53-29.37-11.18-58.89-4.94-59.18 12.51-59.57 9.35-116.92 27.88-97.64 31.54-110.51 12.51-142.57 26.21-20.573 8.8 20.34-3.48 73.82 3.98 52.03 7.26 148.02 5.84 193.64 5.85 24.68.01 146.22-5.54 150.57-6.38M632.344 2301.56c33.43-19.54 53.593-23.36 121.774-23.26 18.566.03 18.797 1.74 35.928-4.97 10.041-3.93 11.141 10.91 37.337-.29 14.342-6.13 36.425 13.96 47.728 16.26 43.729 8.88 53.006 14.05 57.163 16.36-152.907-12.63-240.296 8.68-299.93-4.1" style="fill:#7d7d7d" transform="matrix(.62873 0 0 .62873 198.838 -269.53)"/><path d="M1074.17 2088.5c-13.31-49.24 8.61-44.77 11.09-42.3 6.24 6.24 6.51 12.35 6.57 13.56.1 2.23-.93 1.77-6.21 27.22 2.93.57 29.96 5.9 34.13 15.07 8.82 19.4-31.22-9.93-28.74 11.09 3.99 33.93-8.96 36.14 4.92 61.6 1.74 3.18 7.63 82.02 2.47 84.6-10.79 5.39-6.58-4.71-26.33-52.79-15.77 49.31-16.38 54.78-30.34 58.54-20.66 5.56 9.54-55.95 10.26-73.92.44-10.87 5.51-70.06 4.93-70.22-14.83-4.24-14.59-.47-29.16 4.92 3.83-15.31 3.77-15.32 4.11-16.01M650.861 2168.26c-1.276.13-14.822-.72-16.431 14.57-.924 8.77 17.7 13.86 2.65 53.54-1.366 3.6-2.951 4.38-8.216 25.44-4.574 18.3-3.244 23.53 15.636 25.2 0-13.68-1.824-17.47 3.711-26.53.958-1.56 2.795-4.57 4.505-22.52 2.745 38.89 2.003 39.38 4.506 41.61 6.437 5.72 28.447 4.1 28.887 3.71 1.252-1.12 4.343-1.09 0-20.94 6.315 10.85 6.314 10.64 11.396 22 4.557 10.18 23.242-6.1-2.12-29.16-16.729-15.2 13.418-5.87 15.106-14.31 3.426-17.12-11.484-16.25-13.251-22.26-3.151-10.72 17.161-55.23-2.385-56.18-11.997-.59-12.053-1.1-21.467-8.75zM728.574 2152.84c17.316-30.79 8.368-9.33 10.442-44.58.33-5.61 1.629-8.2-4.016-7.63-2.292.23-2.079.76-22.089 16.06-.802-7.7-12.025-14.81 21.285-61.45 4.107-5.74 17.537-10.04 12.048 6.43-.397 1.2-23.605 41.15-2.811 25.3 7.314-5.57 21.012-44.93 41.366-38.15 4.534 1.51-27.299 40.56-11.245 43.78 3.441.68 10.206 47.11-10.04 113.25-.263.85-11.086 53.16-34.137 50.6-10.447-1.16 2.237-65.61-.803-103.61M799.654 2092.53c7.697-19.24 6.877-20.03 21.965-34.08 4.076-3.8 14.347-8.84 12.37.76-1.809 8.79-20.591 28.54-29.033 56.8-9.446 31.63 2.443 36.55 5.807 32.06 5.043-6.72 10.927-29.19 11.613-31.81 1.037-3.96 30.794-74.37 49.231-72.2 9.697 1.14-44.727 67.73-22.722 85.33 5.924 4.74 15.301-.91 17.167-7.07 6.774-22.35-9.063-28.27 2.02-40.14.624-.67 5.709-5.65 7.826 8.33 3.778 24.94 23.749 4.13 25.499-4.04 3.322-15.5 5.499-14.43 14.391-27.77.466-.7 3.379-5.9 11.108-5.3.073.01 4.837 10.03-2.524 20.95-7.142 10.6-28.978 52.52-35.598 82.31-2.344 10.55-3.306 10.25-3.534 21.2-.322 15.46-12.631 36.62-19.44 13.13-1.352-4.66-2.325-9.43-3.535-14.14-3.709-14.42-9.434-5.27-21.964 2.78-.939.61-14.458 15.09-33.073 11.36-11.658-2.33-9.621-5.48-13.885-16.41" style="fill:#ff9962" transform="matrix(.62873 0 0 .62873 198.838 -269.53)"/><path d="M1304.46 2083.7c.72-.12 1.46.23 2.18.1 2.37-.41 13.27-23.2-4.15-30.94-1.26-.56-25.08-8.74-24.62 20.76.17 11.21 13.88 12.11 18.69 12.85" style="fill:#ff813e" transform="matrix(.62873 0 0 .62873 198.838 -269.53)"/><g transform="matrix(.62873 0 0 .62873 198.838 -269.53)"><path d="M1292.15 2087.27c-33.76 8.44-37.99 31.39-55.63 8.31-1.51-1.97-11.46-7.32-12.28-3.61-3.05 13.69-2.88 15.27 8.66 23.12 20.63 14.03 32.49 4.9 42.62-3.14.71 16.06 3.55 53.54-1.43 59.85-38.31 48.53 17.58 101.77 15.89 57.8-.06-1.51-3.15-.26-6.5-17.7-3.52-18.3-2.9-19.29 9.61-33.22 12.99 46.39 3.2 63.96 13.51 68.26 36.14 15.06-4.29-124.18 19.14-133.3 34.43-13.38 22.42-57.37 13.01-37.2-1.1 2.35-10.1 21.62-31.07 9.39" style="fill:#ffb58d"/><clipPath id="q"><path d="M1292.15 2087.27c-33.76 8.44-37.99 31.39-55.63 8.31-1.51-1.97-11.46-7.32-12.28-3.61-3.05 13.69-2.88 15.27 8.66 23.12 20.63 14.03 32.49 4.9 42.62-3.14.71 16.06 3.55 53.54-1.43 59.85-38.31 48.53 17.58 101.77 15.89 57.8-.06-1.51-3.15-.26-6.5-17.7-3.52-18.3-2.9-19.29 9.61-33.22 12.99 46.39 3.2 63.96 13.51 68.26 36.14 15.06-4.29-124.18 19.14-133.3 34.43-13.38 22.42-57.37 13.01-37.2-1.1 2.35-10.1 21.62-31.07 9.39"/></clipPath><g clip-path="url(#q)"><path d="M1461 1605.98c-4.72 32.34-10 31.58-21.26 36.7-15.88 7.22-1.29 10.92-.88 11.65 1.11 1.93-4.76 7.31-4.07 12.82.17 1.36 5.67 1.02.22 15.11-.31.63-3.59-.57-1.68 3.53.31.65 1.68.64 5.82 7.28 4.99 7.98-2.95 7.04-3.49 7.78-1.63 9.86 4.29 17.91-4.95 14.06-3.55-1.48-.56-19.64-2.33-18.93-2.97 1.19-.63-20.64-4.08-25.34-5.22-7.12-3.5-16.3-3.52-27.97-6.49.25-6.44-.26-12.5 1.76-9.43 3.14-23.29 1.25-25.34 4.08-23.06 31.93-23.97 102.05-2.04 117.96 37.64 27.28 73.92-5.11 78.64-9.33 15.61-13.93 17.08-25.78 18.06-29.7 8.94-35.75 28.91-103.56 2.62-120.29z" style="fill:#ff813e" transform="translate(-563.243 -24.732)scale(1.29806)"/></g></g><path d="M906.76 2116.51c4.563-10.88 17.152-34.09 1.629-38.86-3.776-1.17-23.226-2.22-26.3 9.3-5.157 19.34 4.112 26.68-.931 29.56-2.412 1.38-8.372-.2-19.784 15.6-11.304 15.65-9.327 50.15 7.215 48.41 2.82-.3-3.091-34.29 2.793-34.91 5.265-.56 5.967.51 6.052 5.82.59 37.18-5.066 36.23-18.853 71.68-4.423 11.38-3.213 11.67-8.379 22.58-1.265 2.67-9.153 32.07-1.397 38.64 6.339 5.36 27.627 15.77 21.181.46-6.254-14.85 2.953-36.84 4.189-39.8 3.989-9.53 5.984-26.97 14.896-22.11 1.412.77.659 1.28 12.103 16.06 11.685 15.09-3.663 38.17 12.336 46.55 5.943 3.11 21.874 13.62 16.059-5.12-6.015-19.38 1.904-19.38 3.026-39.57 2.19-39.41-4.105-38.43-10.008-46.55-1.861-2.56-14.57-13.5-12.336-41.43.124-1.55 5.246-11.62 9.31-3.49.722 1.45.848 1.2 11.148 16.83 3.913 5.94 8.509-11.36 3.948-16.09-10.165-10.57-10.814-21.56-27.897-33.56M1006.99 2231.11c11.31 23.86 17.57 58.18-3.84 54.61-6.222-1.04 2.6-39.52-7.818-53.05-49.549-64.35 25.458-70.02 27.818-83.1.06-.34-4.21-14.7 8.84-25.38 17.04-13.95 45.96 15.83 12.69 26.92-2.29.76-3.49 23.03 8.08 37.69 24.04 30.45 23.94 33.72 20.77 33.84-27.42 1.06-29.7-32.94-49.61-36.92-14.08-2.81-15.69 7.74-9.62 10.77 1.88.94 1.64 1.13 20.77 16.15 3.58 2.82 4.96 2.88 12.31 26.54 2.48 8.02-2.42 19.53-2.7 25.39-.74 15.81 6.69 20.77-8.07 26.92-14.68 6.11-15.13-1.45-15.39-17.31-.27-16.38 5.83-33.05-14.23-43.07" style="fill:#ffb58d" transform="matrix(.62873 0 0 .62873 198.838 -269.53)"/><g transform="matrix(.62873 0 0 .62873 198.838 -269.53)"><path d="M960.415 2090.49c-14.89-4.6-34.472-18.57-32.797 18.24.087 1.91 3.447 8.33 3.781 8.59 5.413 4.17 9.215 12.37 6.722 12.92-4.024.88-18.193-7.82-21.628-7.93-6.097-.2-10.673-6.01-11.05-11.47-1.115-16.15-8.588-20.67-10.786-11.04-1.473 6.46 1.381 24.93 2.823 29.47.6 1.9-1.362 7.28 6.96 11.07 5.183 2.36 13.213 10.63 26.515 16.21-1.351 6.38 2.512 30.23-12.112 62.93-4.855 10.85-11.459 27.19-18.322 38.17-8.221 13.15-41.621 21.75-6.6 35.76 1.997.8 24.907 9.96 25.768 7.69 2.721-7.17-7.985-21.39 3.846-35 21.653-24.9 15.776-51.13 21.537-48.84 6.702 2.67 12.607 2.71 26.077 20.85 4.575 6.16 6.48 11.38 6.937 18.54 1.11 17.38-4.681 38.22 16.215 40.61 11.729 1.34 5.769-6.28 5.769-43.08 0-17.5 2.2-19.33-10.769-30.77-3.011-2.65-16.101-21.93-16.153-24.61-.39-20.26 2.456-29.62 3.79-49.64 24.052-3.31 34.462-16.25 35.922-18.13.53-.69 5.85-.52 10.07-8.51 4.44-8.4 7.68-21.03-20.1-6.22-1.8.96-19.221 11.99-29.823 13.92-7.411 1.35-16.555.95-15.657-6.07.334-2.61 8.814-4.76 9.378-17.03.19-4.14-2.625-11.4-6.313-16.63" style="fill:#ffb58d"/><clipPath id="r"><path d="M960.415 2090.49c-14.89-4.6-34.472-18.57-32.797 18.24.087 1.91 3.447 8.33 3.781 8.59 5.413 4.17 9.215 12.37 6.722 12.92-4.024.88-18.193-7.82-21.628-7.93-6.097-.2-10.673-6.01-11.05-11.47-1.115-16.15-8.588-20.67-10.786-11.04-1.473 6.46 1.381 24.93 2.823 29.47.6 1.9-1.362 7.28 6.96 11.07 5.183 2.36 13.213 10.63 26.515 16.21-1.351 6.38 2.512 30.23-12.112 62.93-4.855 10.85-11.459 27.19-18.322 38.17-8.221 13.15-41.621 21.75-6.6 35.76 1.997.8 24.907 9.96 25.768 7.69 2.721-7.17-7.985-21.39 3.846-35 21.653-24.9 15.776-51.13 21.537-48.84 6.702 2.67 12.607 2.71 26.077 20.85 4.575 6.16 6.48 11.38 6.937 18.54 1.11 17.38-4.681 38.22 16.215 40.61 11.729 1.34 5.769-6.28 5.769-43.08 0-17.5 2.2-19.33-10.769-30.77-3.011-2.65-16.101-21.93-16.153-24.61-.39-20.26 2.456-29.62 3.79-49.64 24.052-3.31 34.462-16.25 35.922-18.13.53-.69 5.85-.52 10.07-8.51 4.44-8.4 7.68-21.03-20.1-6.22-1.8.96-19.221 11.99-29.823 13.92-7.411 1.35-16.555.95-15.657-6.07.334-2.61 8.814-4.76 9.378-17.03.19-4.14-2.625-11.4-6.313-16.63"/></clipPath><g clip-path="url(#r)"><path d="M1124.73 1661.37c2.57 0 13.39-2.5 22.03 5.7 2.26 2.15 2.72.89 5.51 2.28.76.38.33.94 8.88 5.87 1.33 6.64-.19 6.48-4.52 20.91-2.62 8.75-5.18 11.7 3.51 14.4-4.22.57-6.81-.14-4.83 1.56.95.81 4.38.32 17.09.76-5.7 1.57-5.56 1.55-10.71 4.62l3.68 1.45c-11.81 2.29-9.75 5.52-11.77 13.3-4.85 3.95-6.84 2.9-7.22 9.12-.9 14.85-18.37 23.95-6.08 28.87 2.67 1.07 10.58 1.38 12.16-.38 5.65-6.32 10.45-33.08 12.34-38.75 5.77-17.29 10.86-4.72 11.12-3.82 3.95.18 4.08-.39 7.31 1.92 2.29 1.64 1.17 2.21 1.34 11.61 8.56 2.52 3.97 6.34 7.78 14.98 5.26 11.96 4.46 13.15 4.58 16.34.12-.03 9.53 3.19 10.42-10.83.43-6.79 3.63-18-13.11-41.79-1.38-1.97-17.08-4.1-13.86-5.88 4.12-2.3 4.19-2.33 5.76-6.83-8.48 3.26-25.4-1.24-19.23-5.73 5.06-3.68-3.48-10.41.76-12.53 6.2-3.1-.51-5.57.57-11.4.59-3.18 1.52-2.55 6.07-6.21 1.03 1.43 5.31.98 10.41-.2 8.95-2.08 20.69-6.57 26.55-4 7.91 3.46 21.84 80.13 21.66 118.75-.05 10.27-68.23 14.7-101.41 16.22-6.34.29-24.6-.97-27.45-24.04-1.99-16.15 20.21-108.62 20.66-116.27" style="fill:#ff813e" transform="translate(-563.243 -24.732)scale(1.29806)"/><path d="M1170.76 1636.72c0-2.37 4.63-3.43 1.61-4.84-2.28-1.06-1.29-3.62-.18-4.03 8.7-3.18 18.78 1.61 29.64 2.6 15.22 1.38 17.08 2.46 18.18 8.51 1.73 9.49 3.92 10.81-5.91 28.2-6.52 11.55-15.89-7.32-16.13-7.56-8.11-8.19-26.71 8.62-36.52-4.26-.7-.91-7.32-4.86-6.63-14.14.12-1.63 3.08.95 3.14.98 9.35 4.28 10.92 5.06 16.2 4.84 5.62-.24 17-13.95 1.71-10.12-.4.1-5.11 1.27-5.11-.18" style="fill:#ff813e" transform="translate(-563.243 -24.732)scale(1.29806)"/></g></g><g transform="matrix(.62873 0 0 .62873 198.838 -269.53)"><path d="M874.82 2168.89c-19.388 0-19.34-.52-20.932 0-1.759.58-5.197 6.77-5.557 7.41-6.726 12.11 3.275 21.23 4.631 22.46 27.2 24.8 4.177 36.52 23.387 76.42 1.142 2.37 5.978 18.72-11.115 6.71-9.742-6.84-4.026-37.34-26.628-49.09-5.538-2.88-5.629-9.36-9.031-4.17-7.299 11.15-3.85 12.86-11.809 23.62-8.282 11.21-7.476 28.07-6.252 31.49 6.524 18.27-29.386 5.56-17.135-15.05 9.792-16.47 5.849-35.08 12.041-58.81 3.605-13.82-4.981-19.1 4.631-47.93 3.059-9.18-10.29 6.89-3.474 22.23 6.25 14.06-8.744 34.25-14.587 10.88-.855-3.42-4.623-18.49 11.172-42.58 7.084-10.8 19.045-18.27 20.988-19.48 1.171-.73 3.351-1.17 3.267-2.55-.004-.07-5.135-3.76-5.557-13.89-.606-14.53-.956-27.95 24.776-26.86 1.91.08 6.678 5.25 7.179 5.79 5.411 5.86 9.119 40.02-10.884 36.59-1.158-.2-2.083-1.19-3.241-1.39 11.701 3.9 14.072 13.16 17.829 20.14 5.914 10.98 12.446 6.08 16.301 18.06" style="fill:#ffb58d"/><clipPath id="s"><path d="M874.82 2168.89c-19.388 0-19.34-.52-20.932 0-1.759.58-5.197 6.77-5.557 7.41-6.726 12.11 3.275 21.23 4.631 22.46 27.2 24.8 4.177 36.52 23.387 76.42 1.142 2.37 5.978 18.72-11.115 6.71-9.742-6.84-4.026-37.34-26.628-49.09-5.538-2.88-5.629-9.36-9.031-4.17-7.299 11.15-3.85 12.86-11.809 23.62-8.282 11.21-7.476 28.07-6.252 31.49 6.524 18.27-29.386 5.56-17.135-15.05 9.792-16.47 5.849-35.08 12.041-58.81 3.605-13.82-4.981-19.1 4.631-47.93 3.059-9.18-10.29 6.89-3.474 22.23 6.25 14.06-8.744 34.25-14.587 10.88-.855-3.42-4.623-18.49 11.172-42.58 7.084-10.8 19.045-18.27 20.988-19.48 1.171-.73 3.351-1.17 3.267-2.55-.004-.07-5.135-3.76-5.557-13.89-.606-14.53-.956-27.95 24.776-26.86 1.91.08 6.678 5.25 7.179 5.79 5.411 5.86 9.119 40.02-10.884 36.59-1.158-.2-2.083-1.19-3.241-1.39 11.701 3.9 14.072 13.16 17.829 20.14 5.914 10.98 12.446 6.08 16.301 18.06"/></clipPath><g clip-path="url(#s)"><path d="M1062.66 1775.28c-9.17-14.31-5.79-31.92-.38-38.32 5.78-6.82 6.08-10.75 12.07-15.4.46 1.4 1.12 4.44 2.53 3.39 1-.74 2.17-2.78 3.46.87 1.28 3.64 4.68.11 4.7 1.15.08 3.14-1.19 5.04 1.92 4.42 1.68-.33 2.77-1.59 3.65 1.63 2.57 9.42.57 9.9 4.52 18.92 1.14 2.61 2.84 11.24 9.22 11.91 2.94.31 5.22-.94 5.47-12.96.02-.9-2.1-18.17-5.19-22.28-6.06-8.09-7.86-6.05-12.58-10.76-10.21-10.22-17.8-4.08-21.13-7.3-.67-.66-3.5-2.8-4.61-6.34 14.87.56 18.87.12 19.4-3.36.13-.83-11.05-3.25-10.56-7.68.29-2.57 3.62 1.61 3.94-.97.16-1.29-1.05-4.07-1.35-5.37-.55-2.42 1.05-.93 3.46-.2-.6-5.62-1.83-6.07.19-7.87 1.49-1.32 5.24 3.68 5.57 4.13.62.83 1.12.23 9.99 8.16 7.19 6.44 13.96-17.03-2.4-19.69-7.37-1.19-5.74-4.07-8.36-5.28-.84-.39-7.1-1.44-12.86-8.64-5.01-6.26.46-16.21 2.4-12.2 2.62 5.42 2.84 5.66 8.35 7.11 2.4.63 3.61 3.63 9.32-2.59.26-.29 3.81-4.16-1.83-4.42-2.38-.11-4.2.57-2.97-1.54.86-1.48 5.19-1.24 5.37-6.43.24-6.56-17.79-13.39-24.26-3.44-2.53 3.89-2.68 13.09-.36 20.79 1.02 3.4 6.17 4.51 6.27 7.67.05 1.79.8 3.1-1.93 6.56-3.06 3.88-9.65 9.91-10.16 11.12-.76 1.81-3.59-33.46-4.03-31.27-2.43-5.09-8.15-15.1 10.08-24.59 16.84-8.77 40.64.9 51.96 23.14 11.5 22.62 10.95 26.87 11.52 31.6 3.6 29.86 4.81 29.75 4.61 59.84-.1 16.57-1.27 16.63-10.47 30.34-6.1 9.1-6.33 9.25-16.42 13.64-5.15 2.25-38.04 11.36-42.16 10.37-14.79-3.52-19.71-9.23-20.94-10.66-4.25-4.93-4.9-4.48-10.37-15.17-1.42-2.78-5.71-19.24.96-38.61.13-.38 26.22-47.73 27.17-39.9.27 2.18.33 24.69-3.8 36.4-6.91 19.58-19.48 31.77-18.01 35.21 5.53 12.99 16.93 19.38 19.03 14.87" style="fill:#ff813e" transform="translate(-563.243 -24.732)scale(1.29806)"/></g></g><g transform="matrix(.62873 0 0 .62873 198.838 -269.53)"><path d="M767.288 2105.22c-8.96.99-38.916.02-39.389 24.63-.257 13.37-1.272 14.42 11.538 29.6 12.034 14.27 19.328 6.78 16.556 1.51-2.016-3.83-23.959-23.56-6.522-30.1 16.938-6.35 20.83 11.56-14.047 100.33-3.722 9.48-33.306 49.32-10.535 60.71 9.137 4.57 9.417-19.04 18.06-25.09 16.61-11.63 31.304-52.02 35.619-48.66 27.388 21.3-13.245 47.8 10.786 68.73 1.518 1.32 12.179 10.61 23.078 10.03 1.411-.07 4.652-4.53-.502-13.29-18.114-30.8 11.654-52.07-4.515-79.01-13.001-21.67-8.234-62.33-7.525-61.71.395.34 26.612 60.48 25.384 27.18-.304-8.24-1.305-7.94-23.316-51.23-2.037-4-8.399-5.88-7.587-7.06.904-1.31 12.865-6.34 11.79-27.84-.828-16.56-38.867-16.91-39.382 6.77-.159 7.3-.288 7.12.509 14.5" style="fill:#ffb58d"/><clipPath id="t"><path d="M767.288 2105.22c-8.96.99-38.916.02-39.389 24.63-.257 13.37-1.272 14.42 11.538 29.6 12.034 14.27 19.328 6.78 16.556 1.51-2.016-3.83-23.959-23.56-6.522-30.1 16.938-6.35 20.83 11.56-14.047 100.33-3.722 9.48-33.306 49.32-10.535 60.71 9.137 4.57 9.417-19.04 18.06-25.09 16.61-11.63 31.304-52.02 35.619-48.66 27.388 21.3-13.245 47.8 10.786 68.73 1.518 1.32 12.179 10.61 23.078 10.03 1.411-.07 4.652-4.53-.502-13.29-18.114-30.8 11.654-52.07-4.515-79.01-13.001-21.67-8.234-62.33-7.525-61.71.395.34 26.612 60.48 25.384 27.18-.304-8.24-1.305-7.94-23.316-51.23-2.037-4-8.399-5.88-7.587-7.06.904-1.31 12.865-6.34 11.79-27.84-.828-16.56-38.867-16.91-39.382 6.77-.159 7.3-.288 7.12.509 14.5"/></clipPath><g clip-path="url(#t)"><path d="M1007.22 1695.31c2.04-6.66 2.33-7.52 1-9.88-11.673-20.59-5.87-35.39 10.34-32.9 1.2.19 4.95-2.68 7.16 5.58 1.73 6.51-4.98 32.04-5.79 43.49-.64 9.05-3.52 8.46-5.53 17.33-2.04 9-9.65 26.68-15.582 35.87-4.587 7.11-7.836 6.22-8.801 10.72-1.286 5.99-3.035 12.29 1.752 12.87.683.08.8.09 5.827-6.32.38-.48-1.081-6.85-.738-7.27 11.722-14.35 13.062-18.05 14.232-20.84 4.93-11.73 5.91-16.53 10.4-28.48 1.2-3.21 4.91 1.81 9.22 2.65 4.57.89 9.74-2.28 10.19-1.63.89 1.29 2.6-.4 3.48.88 2.75 3.96 4.19 2.49 4.76 3.95.71 1.79-1.06 4.67.75 5.21.47.14-.34 1.06 4.4 4.34l-3.28 11.94 1.15.21c-2.87 7.08-1.98 10.65-3.15 19.15-3.46 25.11 4.39 22.23 6.37 23.65 6.04 4.32 8.07-5.66 8.24-6.48 3.43-16.8-1.52-17.01.31-34.11 1.3-12.27-2.65-30.7-12.9-32.73-1.67-.33-17.08-3.37-20.78-4.66-7.22-2.52-6.92-4.47-7.53-6.04 1.7.16 1.65.36 3.27-.11 2.5-.73-5.76-13.1 1.61-19.84 4.91-4.48-1.89-6.27-.94-13.25.68-4.95 10.04 2.99 11.71-5.22.98-4.8 7.23-2.12 8.17-2 1.96.24 2.34.42 5.51 8.67 2.95 7.69.93 8.24 4.2 15.8.63 1.46 3.99 13.99 10.78 14.21 2.02.06 8.54-4.68 5.07-17.51-2.72-10.02-4.23-14.94-14.95-29.11-5.41-7.15-25.08-1.94-31.32-15.74-3.24-7.16 2.63-16.66 4.35-9.17 2.56 11.17 16.56 13.24 20.42 3.3.43-1.09 21.28 20.14 39.43 38.84 10.21 10.53 4.99 89.56-5.07 126.07-2.64 9.57-78.14-2.28-123.497-10.32-19.619-3.48 39.807-60.75 45.757-91.12" style="fill:#ff813e" transform="translate(-563.243 -24.732)scale(1.29806)"/></g></g><g transform="matrix(.62873 0 0 .62873 198.838 -269.53)"><path d="M1144.97 2240.47c26.19-4.62 46.43-13.65 63.14-17.58 11.97-2.81 21.95-1.32 31.83-1.46.26 0 5.35-4.88 11.88-10.05 2.6-2.06-5.4-6.99-2.04-7.43 13.1-1.72 20.16-4.35 24.07-4.68 19.57-1.67 20 35.38 9.29 38.44-20.14 5.75-20.37 4.74-22.1 5.27-5.43 1.67 1.4 32.14-6.79 36.93-11.02 6.46-9.79 9.02-22.36 11.31-12.09 2.2-12.62 5.55-24.12 6.53-15.26 1.3-20.23 5.36-19.84-3.52.04-.97 4.66-7.96 5.52-8.54 5.19-3.46 30.32-4.23 31.66-16.33.82-7.42 3.68-12.73-8.54-12.31-8.39.29-52.59 25.24-66.33 16.08-6.18-4.12-7.03-2.5-14.32-8.29-19.37-15.38-25.02-16.96-26.63-7.54-4.89 28.72-9.15 33.02-38.18 29.65.8-1.03.2-2.75 1-3.77 2.33-2.99 6.55-1.25 9.3-23.87 8.55-70.54 42.4-15.11 63.56-18.84" style="fill:#ffb58d"/><clipPath id="u"><path d="M1144.97 2240.47c26.19-4.62 46.43-13.65 63.14-17.58 11.97-2.81 21.95-1.32 31.83-1.46.26 0 5.35-4.88 11.88-10.05 2.6-2.06-5.4-6.99-2.04-7.43 13.1-1.72 20.16-4.35 24.07-4.68 19.57-1.67 20 35.38 9.29 38.44-20.14 5.75-20.37 4.74-22.1 5.27-5.43 1.67 1.4 32.14-6.79 36.93-11.02 6.46-9.79 9.02-22.36 11.31-12.09 2.2-12.62 5.55-24.12 6.53-15.26 1.3-20.23 5.36-19.84-3.52.04-.97 4.66-7.96 5.52-8.54 5.19-3.46 30.32-4.23 31.66-16.33.82-7.42 3.68-12.73-8.54-12.31-8.39.29-52.59 25.24-66.33 16.08-6.18-4.12-7.03-2.5-14.32-8.29-19.37-15.38-25.02-16.96-26.63-7.54-4.89 28.72-9.15 33.02-38.18 29.65.8-1.03.2-2.75 1-3.77 2.33-2.99 6.55-1.25 9.3-23.87 8.55-70.54 42.4-15.11 63.56-18.84"/></clipPath><g clip-path="url(#u)"><path d="M1246.09 1789.84c14.58-8.33 27.86-14.9 29.67-23.68 1.28-6.22.41-8.11 6.86-8.49 1-16.98 2.5-17.28 3.85-16.94.77.19 10.08 6.83 12.97 5.48.55-.25.07-1.31.5-1.74 3.92-3.93 3.34 11 19.44 12.46 7.19.66 7.19 1.59 14.21-.75 1.56-.52 3.89 2.29 5.73 1 7.18-5.02 8.49-.58 20.94-4.73 5.95-1.98 24.63-2.86 25.68-1 .78 1.39 5.68 10.09-8.23 18.2-2.85 1.66-35.36 6.64-23.43 12.21 10.03 4.68 44-13.17 47.86-22.68 3.07-7.55-3.37-12.03-1.49-25.18.04-.29-.13-.24-1.75-3.24 18.15 8.25 25.62-5.62 27.18 1.25 2.15 9.52 3.13 74.13-47.62 87.74-59.91 16.08-119.31-25.1-132.37-29.91" style="fill:#ff813e" transform="translate(-563.243 -24.732)scale(1.29806)"/></g></g><path d="M636.049 2211.81c2.306-4.04-2.291-9.91.015-13.94 1.313-2.29 5.327.51 7.93.05.834-.15-33.066-42.87-4.611-40.62 12.247.97 16.375 26.15 18.11 20.55 5.806-18.74 1.636-23.51 3.815-26.92 3.328-5.21-5.13-6.96-1.97-15.38.737-1.97 26.941-50.62 25.247 7.13 2.138-.19 26.664-2.42 26.824-.82 1.032 10.31-13.579 8.83-6.706 16.57 17.112 19.25-34.96-5.18-38.659 15.77-1.899 10.77 19.856 1.97 18.146 27.62-.526 7.89-35.185-12.98-18.935 9.07 9.439 12.81 16.385 10.17 15.779 31.95-.261 9.43-2.916 9.5.789 18.15 5.491 12.81 9.024 18.96-5.128 20.12-1.648.13-21.414 1.75-20.118-4.74 2.674-13.37 21.614-24.34-3.55-52.46-12.492-13.96-2.284 44.27-14.596 41.81-2.584-.52.568-2.36-9.467-31.56-5.504-16.01-9.533-26.59 7.085-22.35" style="fill:#ffb58d" transform="matrix(.62873 0 0 .62873 198.838 -269.53)"/><path d="M712.495 2272c13.939-31.43 6.55-32.92.131-124.39-3.005 1.02-5.696-2.85-16.416 5.55-1.312 1.02-8.959 7.01-6.396 19.82.141.7 12.348.45 13.422.43 2.114 94 1.594 97.82 9.259 98.59M1194.47 2209.22c-1.84-.71-4.7 2.06-7.85-7.82-2.34-7.32 3.94-19.11-1.22-39-1.86-7.17-28.84-19.55 1.74-25.16 13.83-2.54 28.37-19.44 38.67-11.3 5.89 4.65-13.15 13.73-21.79 28.62-11.86 20.44-4.46 22.35-9.55 54.66" style="fill:#ffb58d" transform="matrix(.62873 0 0 .62873 198.838 -269.53)"/><path d="M1225.83 2144.64c-6.38-5.3-12.17-6.78-15.02-.93-1.23 2.52-2.56 9.66.46 13.82.31.43 34.97 34.67 36.3 35.11 10.86 3.62 6.38-13.31-4.51-26.26-5.14-6.1-5.16-6.02-10.6-11.89-.65-.69-.29-.93-6.63-9.85" style="fill:#ffb58d" transform="matrix(.62873 0 0 .62873 198.838 -269.53)"/><path d="M1207.58 2188.59c-.57 1.9-4.49 14.97-4.17 24.49.33 9.49 23.57-3.98 18.17-50.32-1.22-10.39-10.21-10.33-11.33-8.33-4.12 7.31-1.08 28.84-2.67 34.16M1101.42 2218.71c.73-2.42 8-26.46 4.46-31.29-.44-.59-.87-.07-6.77-6.09-12.69-12.96-31.54-36.33-31.53-17.13 0 7.41 25.31 15.63 33.84 54.51" style="fill:#ffb58d" transform="matrix(.62873 0 0 .62873 198.838 -269.53)"/><path d="M1151.46 2142.08c-12.04 10.2-14.51 7.71-41.5 44.47-15.64 21.29-7.91 23.88-5.98 23.58 3.93-.61 42.23-56.17 47.48-68.05M1175.91 2125.31c-5.52-7.51-16.72-19.75-10.27-18.76 10.45 1.61 11.34-5.77 9.96-5.95-23.83-3.03-43.55 26.83-37.14 30.03 6.92 3.44 15.17-17.07 22.25-9.59 4.13 4.35 6.5 17.26 15.2 4.27M1093.55 2137.89c2.12-2.45 4.23-4.92 6.36-7.36 2.01-2.31 35.66-41 18.63-33.48-6.83 3.02-8.12 6.26-17.15 4.6-16.3-2.99-39.08 12.78-35.58 16.34 8.74 8.86 25.84 1.51 37.05-1.23-5.8 8.09-6.52 7.56-10.62 16.61-1.39 3.08 1.29 4.46 1.31 4.52M1112.54 2130.14c16.83-11.18 26.06-25.73 21.59-26.18-10.18-1.02-14.91 12.15-18.59 17.46-.42.61-8.64 12.46-3 8.72M1078.92 2210.42c9.6 7.68 6.17-36.39-6.01-26.07-8.83 7.49-.25 14.88 1.39 18.25.32.66 3.27 6.74 4.62 7.82M1065.92 2248.98c10.83 4.08 4.52-18.23-6.34-17.12-1.8.19-7.93 11.74 6.34 17.12" style="fill:#ffb58d" transform="matrix(.62873 0 0 .62873 198.838 -269.53)"/><path d="M1136.74 2181.49c-1.67 1.78-4.16 2.68-5.84 4.47-1.28 1.36-17.09 29.22-7.91 20.66 2.66-2.49 11.31-9.58 16.73-20.83 4.06-8.42 2.22-8.73 1.73-10.92" style="fill:none" transform="matrix(.62873 0 0 .62873 198.838 -269.53)"/><path d="M1156.94 2185.33c7.92 2.65 13.54-18.45 13.07-19.08-4.91-6.57-14.58 18.57-13.07 19.08" style="fill:#ffb58d" transform="matrix(.62873 0 0 .62873 198.838 -269.53)"/><path d="m1066.71 1636.95 3.43 6.9" style="fill:none" transform="matrix(.81613 0 0 .81613 -155.292 -285.08)"/><path d="M614.21 2305.9v85.82l794.23 2.21.65-96.62z" style="fill:#f0e2cc" transform="matrix(.62873 0 0 .62873 198.838 -269.53)"/><path d="m1409.09 2297.31 313.47 31.23 6.37 74.07-321.39-7.89z" style="fill:#dbba85" transform="matrix(.62873 0 0 .62873 198.838 -269.53)"/><path d="M1796.72 2401.35 85.705 2384.83l-23.021 101.84 1734.056 11.78z" style="fill:#e5cca5" transform="matrix(.62873 0 0 .62873 198.838 -269.53)"/><path d="m1796.72 2401.35 431.65 15.11 5.04 75.36-437.97 6.34z" style="fill:#cb9b4e" transform="matrix(.62873 0 0 .62873 198.838 -269.53)"/><path d="m2397.07 2509.72-296.29 210.03H394.078L98.84 2509.72z" style="fill:#35cf16" transform="matrix(.3728 0 0 .1969 451.642 867.1)"/><path d="m2397.07 2509.72-296.29 210.03H394.078L98.84 2509.72z" style="fill:#62eb47" transform="matrix(.68768 0 0 .31309 62.179 514.12)"/><path d="m1840.742 1294.445-237.31 12.498H236.467L0 1294.445z"/><path d="M3304.09 1474.08c2.48-12.13 13.23-21.27 26.09-21.27 5.54 0 10.7 1.7 14.96 4.61 3.33-12.87 14.7-22.36 28.2-22.36 5.95 0 11.48 1.84 16.09 4.99 6.01-6.24 14.24-10.09 23.33-10.09 13.22 0 24.65 8.16 30.01 19.97 13.3.89 23.97 11.2 25.1 24.15z" style="fill:#fff" transform="matrix(2.31962 0 0 2.53364 -6444.797 -3069.83)"/></svg>